name symmetric_stride_kinematics_HTD_Minus_6.mot
datacolumns 38
datarows 6
range 0.00000000 0.00454351
endheader
                time	/jointset/ground_pelvis/pelvis_tilt/value	/jointset/ground_pelvis/pelvis_list/value	/jointset/ground_pelvis/pelvis_rotation/value	/jointset/ground_pelvis/pelvis_tx/value	/jointset/ground_pelvis/pelvis_ty/value	/jointset/ground_pelvis/pelvis_tz/value	/jointset/hip_r/hip_flexion_r/value	/jointset/hip_r/hip_adduction_r/value	/jointset/hip_r/hip_rotation_r/value	/jointset/knee_r/knee_angle_r/value	/jointset/ankle_r/ankle_angle_r/value	/jointset/subtalar_r/subtalar_angle_r/value	/jointset/mtp_r/mtp_angle_r/value	/jointset/hip_l/hip_flexion_l/value	/jointset/hip_l/hip_adduction_l/value	/jointset/hip_l/hip_rotation_l/value	/jointset/knee_l/knee_angle_l/value	/jointset/ankle_l/ankle_angle_l/value	/jointset/subtalar_l/subtalar_angle_l/value	/jointset/mtp_l/mtp_angle_l/value	/jointset/back/lumbar_extension/value	/jointset/back/lumbar_bending/value	/jointset/back/lumbar_rotation/value	/jointset/acromial_r/arm_flex_r/value	/jointset/acromial_r/arm_add_r/value	/jointset/acromial_r/arm_rot_r/value	/jointset/elbow_r/elbow_flex_r/value	/jointset/radioulnar_r/pro_sup_r/value	/jointset/radius_hand_r/wrist_flex_r/value	/jointset/radius_hand_r/wrist_dev_r/value	/jointset/acromial_l/arm_flex_l/value	/jointset/acromial_l/arm_add_l/value	/jointset/acromial_l/arm_rot_l/value	/jointset/elbow_l/elbow_flex_l/value	/jointset/radioulnar_l/pro_sup_l/value	/jointset/radius_hand_l/wrist_flex_l/value	/jointset/radius_hand_l/wrist_dev_l/value	
          0.00000000	         -6.83412020	         -3.55264169	        -10.63606704	         -0.00000000	          1.00254956	          0.30715225	         30.06667544	          5.73433255	          3.76056616	        -17.26936927	        -14.49893020	         -5.95808963	          5.02073117	         34.23432770	         -7.93791377	          1.11283449	       -118.53296503	         -3.15019829	        -14.78850144	         -3.14369381	        -21.26279268	          6.43685970	          3.81577662	         -6.09383763	        -20.87956682	        -14.71856630	        116.58207948	         50.51064600	          6.61908544	          5.20816577	         -0.45046685	        -14.79482729	         -8.08389983	         73.51438601	         64.52014813	          6.37005998	          6.55340110	
          0.00060991	         -6.89568904	         -3.45775567	        -10.87397491	          0.00685660	          1.00201127	          0.30729475	         29.77767790	          5.69546806	          3.74930546	        -17.17739454	        -14.22496194	         -5.87061055	          4.52737014	         34.64895978	         -7.97126072	          1.00016404	       -118.82207442	         -2.88568415	        -14.72920691	         -2.73949758	        -21.13500394	          6.31697223	          4.02547080	         -5.26992417	        -20.68065356	        -14.70638982	        116.97362129	         50.29275912	          6.60073398	          5.21202565	         -0.98996080	        -14.56891594	         -7.78375249	         73.56910971	         64.46984677	          6.46646616	          6.55330010	
          0.00253697	         -7.07629218	         -3.14189050	        -11.62599468	          0.02855315	          1.00024282	          0.30774561	         28.84603969	          5.54415622	          3.78028329	        -16.89720193	        -13.20179454	         -5.52135548	          2.92913999	         35.95418572	         -8.07980284	          0.64260430	       -119.72169189	         -2.04426122	        -14.50269440	         -1.58486145	        -20.73130377	          5.92457079	          4.69166504	         -2.67176046	        -20.03343221	        -14.69326395	        118.20229567	         49.51381809	          6.56327392	          5.18407708	         -2.72209162	        -13.85511843	         -6.85427179	         73.81144459	         64.43165613	          6.75789284	          6.58663979	
          0.00393360	         -7.18965774	         -2.89902377	        -12.16833272	          0.04430924	          0.99890687	          0.30806889	         28.15092545	          5.40440386	          3.85707336	        -16.72123194	        -12.28587226	         -5.21302280	          1.82696549	         36.89086299	         -8.15996405	          0.38322555	       -120.35909263	         -1.43009161	        -14.31188104	         -0.86079898	        -20.44378436	          5.62825554	          5.17526287	         -0.79304913	        -19.54756769	        -14.70902437	        119.09100447	         48.91709445	          6.54754385	          5.14337877	         -4.00324266	        -13.33761078	         -6.20174192	         74.04460920	         64.47001668	          6.96466346	          6.62508818	
          0.00393360	         -7.18965774	         -2.89902377	        -12.16833272	          0.04430924	          0.99890687	          0.30806889	         28.15092545	          5.40440386	          3.85707336	        -16.72123194	        -12.28587226	         -5.21302280	          1.82696549	         36.89086299	         -8.15996405	          0.38322555	       -120.35909263	         -1.43009161	        -14.31188104	         -0.86079898	        -20.44378436	          5.62825554	          5.17526287	         -0.79304913	        -19.54756769	        -14.70902437	        119.09100447	         48.91709445	          6.54754385	          5.14337877	         -4.00324266	        -13.33761078	         -6.20174192	         74.04460920	         64.47001668	          6.96466346	          6.62508818	
          0.00454351	         -7.23344676	         -2.78974409	        -12.40336103	          0.05119853	          0.99831190	          0.30820769	         27.84137419	          5.33471335	          3.90248360	        -16.65572106	        -11.82921302	         -5.06826285	          1.36776603	         37.29635298	         -8.19473855	          0.27059032	       -120.63321721	         -1.16227331	        -14.22486145	         -0.55158687	        -20.32090396	          5.49615268	          5.38568432	          0.02636487	        -19.33111839	        -14.72361153	        119.48022363	         48.66699258	          6.54297371	          5.12459773	         -4.56927086	        -13.11119995	         -5.92435351	         74.16005849	         64.51148836	          7.05436255	          6.64236560	
